<svg id="logo" xmlns="http://www.w3.org/2000/svg" width="186.549" height="44.327" viewBox="0 0 186.549 44.327">
  <path id="Path_9824" data-name="Path 9824" d="M210.436,0l-3.363,6.237,27.632,15.387-26.93,16.624,3.634,6.079L248.7,21.307Z" transform="translate(-62.15 0)" fill="#23ad8b"/>
  <path id="Path_9825" data-name="Path 9825" d="M129.6,0l-3.363,6.237,27.632,15.387L126.937,38.248l3.634,6.079L160.648,25.76h18.094V18.648h-15.66Z" transform="translate(-37.887 0)" fill="#23ad8b"/>
  <path id="Path_9826" data-name="Path 9826" d="M38.263,0,0,21.307l37.289,23.02,3.634-6.079L13.994,21.624,41.626,6.237Z" transform="translate(0 0)" fill="#23ad8b"/>
  <rect id="Rectangle_2042" data-name="Rectangle 2042" width="5.859" height="5.954" transform="translate(133.205 4.681)" fill="#23ad8b"/>
  <rect id="Rectangle_2043" data-name="Rectangle 2043" width="5.859" height="5.954" transform="translate(30.666 20.063)" fill="#23ad8b"/>
  <path id="Path_9827" data-name="Path 9827" d="M82.661,9.738l16.4,9.135-21.336.479ZM79.735,0,63.893,26.728l32.964-.691L77.075,38.248l3.634,6.079,30.136-18.6.185,0,0-.109,6.97-4.3Z" transform="translate(-19.177 0)" fill="#23ad8b"/>
</svg>
