<svg xmlns="http://www.w3.org/2000/svg" width="20.621" height="20.621" viewBox="0 0 20.621 20.621">
  <path id="hestory" d="M21.183,10.853A10.311,10.311,0,0,1,4.4,18.9a1,1,0,0,1-.076-1.48l.468-.468a1,1,0,0,1,1.326-.082A7.65,7.65,0,1,0,5.632,5.3l2.11,2.11a.665.665,0,0,1-.47,1.136H1.228A.665.665,0,0,1,.563,7.88V1.836A.665.665,0,0,1,1.7,1.365L3.751,3.418a10.31,10.31,0,0,1,17.433,7.435Zm-7.521,3.275.408-.525a1,1,0,0,0-.175-1.4L12.2,10.887V6.549a1,1,0,0,0-1-1H10.54a1,1,0,0,0-1,1v5.64L12.262,14.3a1,1,0,0,0,1.4-.175Z" transform="translate(-0.563 -0.563)"/>
</svg>
